# xmcd
#
# Track frame offsets:
#	150
#	16076
#	33744
#	57291
#	69716
#	95589
#	123985
#	135498
#	150012
#	160080
#	185326
#
# Disc length: 2706 seconds
#
# Revision: 0
# Processed by: cddbd v1.4b42PL0 Copyright (c) Steve Scherf et al.
# Submitted via: EZCDDA 4.3.3.2
#
DISCID=840a900b
DTITLE=James Booker - The Lost Paramount Tapes
DYEAR=1900
DGENRE=
TTITLE0=Goodnight Irene
TTITLE1=Feel So Bad
TTITLE2=Junco Partner
TTITLE3=African Gumbo
TTITLE4=Lah Tee Tah
TTITLE5=So Swell When You're Well
TTITLE6=Storm Monday
TTITLE7=Hound Dog Medley
TTITLE8=Hole In the Wall
TTITLE9=Tico Tico
TTITLE10=Junco Partner #2
EXTD=
EXTT0=
EXTT1=
EXTT2=
EXTT3=
EXTT4=
EXTT5=
EXTT6=
EXTT7=
EXTT8=
EXTT9=
EXTT10=
PLAYORDER=
